# xmcd
#
# Track frame offsets:
#	150
#	16562
#	39134
#	54711
#	69097
#	84012
#	103086
#	124411
#	139878
#	156110
#	181488
#	200391
#	220618
#	242567
#	259523
#	278980
#	299240
#	309698
#	327483
#	347268
#
# Disc length: 4863 seconds
#
# Revision: 0
# Processed by: cddbd v1.5.2PL0 Copyright (c) Steve Scherf et al.
# Submitted via: audiograbber 1.83.01
#
DISCID=1d12fd14
DTITLE=Various Artist - R&B Anthems- Classic Jams [CD 3 of 3) (2016)
DYEAR=2016
DGENRE=R&B
TTITLE0=Christina Aguilera - Genie In A Bottle
TTITLE1=P!nk - Most Girls
TTITLE2=Aaliyah - I'm So Into You
TTITLE3=Amerie - Gotta Work
TTITLE4=Evelyn ''Champagne'' King - Love Come Down
TTITLE5=Monica - Don't Take It Personal (Just One of Dem Days)
TTITLE6=SWV - You're The One
TTITLE7=Jagged Edge - Where The Party At
TTITLE8=Koffee Brown - After Party
TTITLE9=Brownstone - Grapevyne
TTITLE10=Jon B. - They Don't Know
TTITLE11=Az Yet - Last Night
TTITLE12=Tyrese - Sweet Lady
TTITLE13=Andrew Roachford - The Way I Feel
TTITLE14=Jazmine Sullivan - Need U Bad
TTITLE15=Angie Stone - Brotha
TTITLE16=Raphael Saadiq - 100 Yard Dash
TTITLE17=Cassidy feat Mashonda - Get No Better
TTITLE18=Tatyana Ali - Daydreamin' (Pt. II)
TTITLE19=Aretha Franklin - A Rose Is Still A Rose
EXTD=
EXTT0=
EXTT1=
EXTT2=
EXTT3=
EXTT4=
EXTT5=
EXTT6=
EXTT7=
EXTT8=
EXTT9=
EXTT10=
EXTT11=
EXTT12=
EXTT13=
EXTT14=
EXTT15=
EXTT16=
EXTT17=
EXTT18=
EXTT19=
PLAYORDER=
